<svg width="512" height="512" viewBox="0 0 512 512" fill="none" xmlns="http://www.w3.org/2000/svg">
<path d="M368.459 82.3102C376.797 84.0274 378.83 87.9022 380.736 89.2277C389.566 98.2734 409.552 119.272 418.857 130.902C424.946 138.514 426.607 143.956 426.933 148.017M368.459 82.3102C365.959 81.7952 362.892 81.4743 359.091 81.4743C342.615 81.4743 186.245 85.5152 154.271 81.7973C126.488 78.5667 110.981 79.2129 108.073 96.335C105.166 113.457 105.166 164.501 102.581 177.746C99.9969 190.991 100.643 305.354 98.7047 328.938C96.7664 352.521 83.5209 416.487 85.1362 422.948C86.7515 429.409 92.5666 430.378 108.073 432.963C123.58 435.547 280.91 452.023 311.924 452.993C342.938 453.962 366.198 452.993 380.736 452.993C395.273 452.993 407.226 457.192 407.226 432.963C407.226 405.486 413.688 288.555 414.657 256.249C415.626 223.943 426.287 161.27 426.933 151.578C427.004 150.52 427.039 149.342 426.933 148.017M368.459 82.3102C367.167 100.769 365.358 138.139 368.459 139.948C372.336 142.209 375.244 143.179 380.736 143.502C385.129 143.76 413.365 146.62 426.933 148.017" stroke="#DA8F52" stroke-width="12.9224"/>
<path d="M159.929 91.9455C190.36 95.4676 339.186 91.6395 354.867 91.6395C358.484 91.6395 361.404 91.9435 363.784 92.4313C371.719 94.0582 373.654 97.7289 375.468 98.9845C383.872 107.554 402.894 127.447 411.749 138.464C417.545 145.675 419.126 150.831 419.436 154.678C419.537 155.933 419.503 157.049 419.436 158.051C418.821 167.233 408.675 226.606 407.752 257.21C406.83 287.815 400.68 398.587 400.68 424.617C400.68 447.57 389.304 443.592 375.468 443.592C361.631 443.592 339.493 444.51 309.976 443.592C280.458 442.674 130.719 427.065 115.96 424.617C101.202 422.169 95.667 421.251 94.1296 415.13C92.5923 409.009 105.199 348.412 107.044 326.07C108.888 303.729 108.273 195.389 110.733 182.841C113.193 170.293 113.193 121.938 115.96 105.718C118.727 89.4971 133.486 88.885 159.929 91.9455Z" fill="#DA8F52"/>
<path d="M363.784 92.4313C371.719 94.0582 373.654 97.7289 375.468 98.9845C383.872 107.554 402.894 127.447 411.749 138.464C417.545 145.675 419.126 150.831 419.436 154.678M363.784 92.4313C361.404 91.9435 358.484 91.6395 354.867 91.6395C339.186 91.6395 190.36 95.4676 159.929 91.9455C133.486 88.885 118.727 89.4971 115.96 105.718C113.193 121.938 113.193 170.293 110.733 182.841C108.273 195.389 108.888 303.729 107.044 326.07C105.199 348.412 92.5923 409.009 94.1296 415.13C95.667 421.251 101.202 422.169 115.96 424.617C130.719 427.065 280.458 442.674 309.976 443.592C339.493 444.51 361.631 443.592 375.468 443.592C389.304 443.592 400.68 447.57 400.68 424.617C400.68 398.587 406.83 287.815 407.752 257.21C408.675 226.606 418.821 167.233 419.436 158.051C419.503 157.049 419.537 155.933 419.436 154.678M363.784 92.4313C362.554 109.918 360.832 145.32 363.784 147.034C367.473 149.176 370.241 150.094 375.468 150.4C379.649 150.645 406.522 153.354 419.436 154.678" stroke="#FAF0DE" stroke-width="11.9374"/>
<path d="M275.963 237.49V204.084C275.963 192.277 250.299 182.774 232.948 191.989C215.597 201.204 210.536 222.227 232.948 237.49C255.359 252.753 301.667 274.64 312.834 312.653C320.786 339.723 310.665 384.36 263.312 392.424C215.958 400.487 169.328 377.161 158.484 332.812C149.808 297.332 162.099 288.271 169.328 288.175C183.908 287.503 210.319 290.709 199.331 308.909C185.595 331.66 208.006 379.753 243.792 364.202C279.578 348.651 273.794 313.229 263.312 302.574C251.833 290.906 184.149 256.497 176.196 235.474C168.244 214.452 175.112 179.894 199.331 166.359C223.549 152.824 270.903 156.567 300.182 171.542C329.462 186.517 320.063 230.866 320.063 240.37C320.063 249.873 310.303 250.161 300.182 250.161C290.061 250.161 275.963 245.553 275.963 237.49Z" fill="#FAF0DE" stroke="#FAF0DE" stroke-width="10"/>
<path d="M172.5 53.3221C173.877 49.049 186.015 53.4695 191.75 55.25C204.482 57.6052 213.857 57.0793 231.75 59.75C249.643 62.4207 305.239 58.9216 316.25 63.5C327.261 68.0784 314.478 73.6324 311.725 80.5C308.972 87.3676 316.886 88.0417 317.919 95.2908C318.951 102.54 308.284 100.632 306.908 109.026C305.531 117.42 313.101 125.05 311.725 129.247C310.348 133.444 292.111 125.814 280.412 125.05C268.713 124.287 192.324 116.657 183.033 115.894C173.743 115.131 155.506 118.564 155.506 109.026C155.506 99.4877 170.646 99.8692 170.646 95.2908C170.646 90.7124 159.906 83.2361 160.25 76.75C160.594 70.2639 170.99 72.7803 174.087 68.5835C177.184 64.3866 170.78 58.6636 172.5 53.3221Z" stroke="#DA8F52" stroke-width="11.9374"/>
<path d="M179.633 59.7917C180.826 56.4492 194.356 60.4881 199.329 61.8808C210.372 63.723 217.832 62.4777 233.351 64.5667C248.87 66.6557 300.499 64.5667 310.049 68.1479C319.599 71.7291 307.064 73.8182 304.677 79.19C302.289 84.5618 309.153 89.0384 310.049 94.7086C310.944 100.379 301.693 98.8867 300.499 105.452C299.305 112.018 305.871 117.987 304.677 121.269C303.483 124.552 287.666 118.583 277.519 117.987C267.373 117.39 201.12 111.421 193.062 110.824C185.005 110.227 169.188 112.913 169.188 105.452C169.188 97.9914 182.319 98.2898 182.319 94.7086C182.319 91.1274 168.889 84.2634 169.188 79.19C169.486 74.1166 182.617 77.101 185.303 73.8182C187.989 70.5354 178.141 63.9698 179.633 59.7917Z" fill="#FAF0DE" stroke="#FAF0DE" stroke-width="11.9374"/>
<path d="M130.19 239.988L135.076 215.397C135.076 215.397 149.739 226.546 156.621 226.398C156.621 226.398 151.833 244.243 152.129 250.017C152.129 250.017 137.427 240.36 130.19 239.988Z" fill="#FAF0DE" stroke="#FAF0DE" stroke-width="8.66438"/>
<path d="M337.65 373.841L357.29 340.576C357.29 340.576 372.927 364.262 383.01 367.555C383.01 367.555 366.949 391.062 364.437 399.609C364.437 399.609 347.982 378.071 337.65 373.841Z" fill="#FAF0DE" stroke="#FAF0DE" stroke-width="11.5525"/>
<path d="M349.357 309.225L354.243 284.634C354.243 284.634 368.906 295.783 375.788 295.634C375.788 295.634 371 313.48 371.296 319.254C371.296 319.254 356.594 309.597 349.357 309.225Z" fill="#FAF0DE" stroke="#FAF0DE" stroke-width="8.66438"/>
<path d="M341.5 204.75L362.25 200.5L383 196.25M356 179L366.25 224.5" stroke="#FAF0DE" stroke-width="12" stroke-linecap="round" stroke-linejoin="round"/>
<path d="M129.742 381.185L144.155 385.485L158.567 389.785M147.192 370.251L138.894 401.5" stroke="#FAF0DE" stroke-width="12" stroke-linecap="round" stroke-linejoin="round"/>
<path d="M138.527 139.894L149.778 143.865L161.028 147.835M150.788 134.358L147.153 153.685" stroke="#FAF0DE" stroke-width="12" stroke-linecap="round" stroke-linejoin="round"/>
</svg>
