<svg width="1024" height="1024" viewBox="0 0 1024 1024" fill="none" xmlns="http://www.w3.org/2000/svg">
<rect width="1024" height="1024" fill="#FAF0DE"/>
<path d="M357.908 115.158C360.051 114.988 362.532 114.97 365.114 115.031C375.354 115.272 391.798 116.89 409.323 118.845C426.911 120.808 446.493 123.22 462.724 125.088C479.476 127.015 492.166 128.297 497.348 128.297C509.516 128.297 535.883 128.906 559.949 129.205C572.098 129.356 583.735 129.43 592.975 129.318C597.603 129.262 601.536 129.161 604.587 129.007C606.113 128.929 607.343 128.843 608.284 128.752C609.216 128.661 609.612 128.59 609.645 128.585C616.388 127.086 627.511 126.797 633.403 136.707C635.924 140.946 636.351 145.553 636.071 149.361C635.787 153.223 634.719 157.178 633.251 161.031C631.333 166.065 628.452 169.461 625.696 171.85C626.292 172.666 626.994 173.594 627.82 174.642C631.238 178.98 633.361 183.543 634.229 188.177H726.887C733.338 187.91 743.986 190.687 751.824 200.663C756.237 206.279 794.253 249.631 819.911 278.786L830.017 290.26L830.072 290.323L830.127 290.386C832.252 292.865 835.36 296.869 838.017 301.136C839.345 303.271 840.706 305.704 841.77 308.206C842.743 310.494 843.926 313.877 843.927 317.615C843.927 318.424 843.835 321.062 843.699 324.718C842.85 347.512 839.669 423.927 836.352 496.516C834.694 532.812 832.999 568.185 831.545 595.436C830.818 609.056 830.149 620.687 829.572 629.403C829.025 637.666 828.509 644.278 827.998 647.041C827.521 649.618 826.354 660.673 824.736 678.038C823.156 695 821.212 717.181 819.159 741.265C815.054 789.428 810.52 845.112 807.598 881.692L807.54 882.403L807.4 883.101C806.375 888.229 803.411 895.032 797.654 900.556C791.534 906.429 782.662 910.433 771.218 909.74C751.74 908.56 638.913 909.761 609.245 909.761C601.199 909.761 576.274 907.507 544.047 904.198C511.393 900.846 470.284 896.303 429.12 891.536C387.956 886.769 346.695 881.772 313.737 877.51C281.162 873.298 255.839 869.701 247.245 867.718C239.595 865.952 232.272 864.517 225.354 863.134C218.568 861.776 211.992 860.435 206.361 858.914C200.945 857.451 195.163 855.516 190.597 852.467C185.63 849.15 180.575 843.336 181.028 834.729L181.077 833.988C181.385 829.931 182.654 820.722 184.256 809.68C186.02 797.522 188.332 782.21 190.675 766.72C195.406 735.433 200.162 704.035 201.028 695.085C201.901 686.069 205.664 617.833 209.152 548.213C212.649 478.428 215.78 408.956 215.492 397.145C215.179 384.316 215.951 343.293 217.539 303.597C218.335 283.689 219.344 263.928 220.541 248.028C221.138 240.089 221.791 232.997 222.503 227.28C223.163 221.978 223.998 216.691 225.266 213.141C228.934 202.87 234.46 194.661 243.495 189.127C252.011 183.911 262.344 181.912 273.759 180.961C280.003 180.44 303.401 180.703 334.08 181.29C336.737 181.341 339.458 181.396 342.235 181.452C341.39 180.159 340.568 178.821 339.859 177.504C337.601 173.308 335.011 166.827 336.787 159.367C338.259 153.185 341.83 148.191 347.478 145.479C349.966 144.285 352.508 143.737 354.67 143.484C354.029 142.769 353.377 142.115 352.779 141.561C351.079 140.725 349.078 139.574 347.44 138.029C346.507 137.148 343.315 133.98 343.194 128.751C343.047 122.342 347.374 118.79 349.413 117.551C351.425 116.329 353.407 115.85 354.418 115.637C355.63 115.383 356.84 115.243 357.908 115.158ZM333.618 205.479C302.008 204.875 280.413 204.684 275.768 205.071C265.409 205.934 259.713 207.565 256.132 209.759C253.071 211.633 250.431 214.615 248.051 221.278C248.048 221.287 248.028 221.342 247.997 221.451C247.96 221.58 247.911 221.762 247.853 222.001C247.736 222.485 247.599 223.125 247.449 223.938C247.148 225.573 246.833 227.684 246.512 230.267C245.869 235.43 245.251 242.086 244.667 249.843C243.501 265.338 242.505 284.781 241.714 304.564C240.126 344.253 239.387 384.583 239.679 396.555C239.995 409.545 236.775 480.397 233.316 549.424C229.849 618.611 226.052 687.674 225.109 697.416C224.161 707.216 219.24 739.63 214.597 770.339C212.251 785.847 209.951 801.081 208.199 813.154C206.861 822.374 205.917 829.279 205.471 833.122C206.924 833.793 209.219 834.625 212.67 835.557C217.397 836.834 223.183 838.026 230.1 839.409C236.885 840.766 244.609 842.28 252.684 844.143C259.817 845.789 283.638 849.223 316.84 853.516C349.659 857.76 390.809 862.743 431.904 867.503C472.999 872.262 513.999 876.792 546.517 880.131C579.462 883.513 602.774 885.568 609.245 885.568C637.643 885.568 752.239 884.351 772.682 885.59C777.205 885.864 779.522 884.425 780.902 883.1C782.397 881.666 783.232 879.879 783.556 878.819C786.482 842.204 790.978 787.016 795.053 739.211C797.107 715.105 799.057 692.85 800.646 675.794C802.198 659.141 803.476 646.591 804.209 642.635C804.213 642.61 804.227 642.518 804.251 642.341C804.282 642.111 804.32 641.801 804.364 641.401C804.452 640.598 804.553 639.542 804.666 638.225C804.891 635.593 805.147 632.092 805.431 627.805C805.997 619.242 806.66 607.73 807.385 594.146C808.834 566.987 810.526 531.688 812.183 495.412C815.06 432.463 817.831 366.664 819.067 335.521C803.72 334.435 784.528 333.007 767.087 331.56C755.964 330.638 745.496 329.704 737.171 328.844C729.294 328.031 722.26 327.187 718.813 326.326C714.378 325.217 711.644 322.317 710.178 320.198C708.717 318.087 707.855 315.838 707.306 314.042C706.198 310.42 705.625 306.112 705.3 301.844C704.635 293.131 704.819 281.78 705.432 269.818C706.391 251.064 708.466 229.734 710.49 212.371H627.449C626.768 213.274 626.095 214.107 625.459 214.864C623.828 216.803 622.147 218.58 620.811 219.991C623.11 223.091 625.427 226.797 626.962 230.786C628.382 234.479 629.504 239.355 628.487 244.656C627.396 250.345 624.111 255.11 619.245 258.545C616.268 260.646 612.778 261.362 611.046 261.683C608.768 262.106 606.166 262.374 603.467 262.553C598.031 262.914 591.13 262.98 583.437 262.855C567.993 262.605 548.4 261.568 528.909 260.279C489.88 257.697 450.585 254.056 444.184 253.446C441.388 253.18 434.212 252.857 424.112 252.382C414.269 251.918 402.128 251.327 390.019 250.525C377.953 249.726 365.703 248.703 355.683 247.353C350.689 246.681 346.013 245.896 342.087 244.958C338.7 244.148 334.07 242.84 330.585 240.323C327.919 238.397 325.262 235.643 323.763 231.804C322.21 227.828 322.38 223.917 323.321 220.647C324.956 214.973 329.13 210.528 331.957 207.78C332.738 207.02 333.565 206.255 334.414 205.495C334.148 205.49 333.883 205.484 333.618 205.479ZM388.56 776.667C380.669 779.186 370.81 781.958 361.727 785.891C357.254 787.828 353.375 789.885 350.354 792.055C347.285 794.261 345.641 796.201 344.884 797.711C337.472 812.478 338.45 824.007 339.186 826.957L318.813 832.046C316.823 824.076 316.521 807.409 326.116 788.291C328.941 782.663 333.466 778.334 338.1 775.005C342.782 771.639 348.14 768.892 353.383 766.622C363.733 762.14 375.226 758.881 382.176 756.663L388.56 776.667ZM436.569 315.575C460.023 299.122 493.181 293.952 525.63 296.405C558.328 298.877 592.382 309.224 618.805 326.186C648.475 345.234 657.102 381.755 659.339 412.064C660.491 427.681 660.027 442.777 659.304 455.051C658.535 468.1 657.633 476.347 657.633 480.925C657.633 487.544 656.273 493.715 652.969 498.985C649.612 504.338 644.897 507.729 640.003 509.818C631.103 513.617 620.131 513.587 612.269 513.587C601.844 513.587 589.639 510.689 579.697 505.061C569.986 499.565 559.647 489.67 559.647 474.876V404.714C559.647 399.53 554.473 391.55 542.202 386.706C530.657 382.148 516.989 382.368 506.477 389.376C495.021 397.013 487.716 409.483 486.892 423.061C486.086 436.366 491.464 451.864 507.628 465.681C516.747 473.477 528.145 481.991 541.313 492.322C554.253 502.473 568.419 514.018 582.06 527.187C609.297 553.48 635.131 586.889 645.218 629.985C652.376 660.572 651.416 700.702 638.011 735.8C624.475 771.237 597.719 802.579 553.103 812.115C466.843 830.552 382.653 776.766 363.295 677.394C355.856 639.206 356.991 613.391 362.819 596.41C368.647 579.43 380.113 569.615 392.79 569.243C405.778 568.513 425.489 569.756 440.146 577.563C447.798 581.639 455.159 588.113 458.368 598.021C461.575 607.92 459.852 618.826 454.418 630.123C449.871 639.576 447.973 652.552 449.084 666.838C450.186 681.016 454.185 695.523 460.393 707.57C466.671 719.752 474.651 728.387 483.08 732.481C490.871 736.265 500.313 736.829 512.12 730.389C537.896 716.329 548.727 693.507 551.256 671.08C552.53 659.776 551.652 648.73 549.501 639.349C547.306 629.781 543.984 622.774 541.054 619.035C537.287 614.229 527.858 606.04 513.972 594.838C500.749 584.172 483.977 571.138 467.79 557.815C451.492 544.401 435.046 530.1 421.754 516.207C408.813 502.681 397.438 488.118 393.224 474.133C385.865 449.715 385.52 418.358 392.186 389.445C398.82 360.673 412.922 332.164 436.569 315.575ZM313.267 716.678C332.74 715.488 353.272 716.829 366.343 718.428L364.874 730.436L363.404 742.444C351.4 740.975 332.392 739.748 314.744 740.827C305.911 741.367 297.813 742.462 291.265 744.221C284.421 746.06 280.741 748.241 279.176 749.894C271.137 758.388 265.604 763.921 261.457 768.582C257.187 773.381 256.295 775.26 256.122 775.859L232.878 769.144C234.711 762.8 239.061 757.356 243.383 752.499C247.828 747.503 254.237 741.047 261.604 733.263C267.742 726.778 276.59 723.112 284.988 720.856C293.682 718.521 303.541 717.273 313.267 716.678ZM723.533 641.17C723.533 641.171 723.534 641.176 723.535 641.181C723.537 641.192 723.54 641.209 723.544 641.233C723.552 641.282 723.565 641.359 723.583 641.462C723.618 641.667 723.672 641.978 723.744 642.38C723.889 643.185 724.107 644.356 724.395 645.789C724.974 648.664 725.826 652.556 726.928 656.655C728.037 660.782 729.358 664.967 730.845 668.49C732.425 672.234 733.838 674.356 734.749 675.184L741.91 681.692L733.657 686.745C733.657 686.745 733.656 686.746 733.655 686.747C733.653 686.748 733.649 686.751 733.643 686.755C733.632 686.761 733.614 686.773 733.591 686.787C733.544 686.816 733.472 686.859 733.379 686.917C733.191 687.033 732.912 687.206 732.553 687.429C731.834 687.876 730.796 688.525 729.529 689.328C726.992 690.935 723.55 693.149 719.926 695.584C716.29 698.025 712.527 700.65 709.322 703.082C705.977 705.62 703.703 707.607 702.682 708.801L693.372 719.677L690.101 705.738C690.101 705.736 690.101 705.733 690.1 705.728C690.097 705.718 690.092 705.701 690.087 705.678C690.076 705.632 690.059 705.559 690.035 705.462C689.988 705.266 689.917 704.971 689.821 704.59C689.63 703.825 689.345 702.713 688.977 701.347C688.24 698.609 687.175 694.881 685.864 690.907C684.547 686.913 683.018 682.781 681.367 679.193C679.65 675.462 678.061 672.903 676.812 671.591L671.03 665.509L677.882 660.664L712.18 636.413L721.666 629.706L723.533 641.17ZM692.142 668.359C693.02 669.923 693.824 671.538 694.554 673.124C696.517 677.39 698.24 682.082 699.651 686.361C700.188 687.989 700.684 689.574 701.138 691.073C704.509 688.54 708.29 685.912 711.833 683.533C714.609 681.669 717.271 679.935 719.524 678.49C718.755 677.039 718.073 675.561 717.471 674.135C715.626 669.764 714.107 664.88 712.909 660.423C712.374 658.432 711.897 656.495 711.475 654.688L692.142 668.359ZM307.145 530.294V530.295C307.147 530.297 307.151 530.301 307.155 530.308L307.403 530.68C307.585 530.951 307.859 531.356 308.217 531.88C308.933 532.928 309.984 534.445 311.301 536.287C313.94 539.981 317.614 544.94 321.776 550.039C325.963 555.168 330.51 560.274 334.892 564.352C339.51 568.649 343.036 570.932 345.165 571.628L357.43 575.634L350.151 586.287C350.151 586.288 350.149 586.289 350.147 586.291C350.145 586.295 350.14 586.3 350.135 586.308C350.123 586.325 350.106 586.352 350.082 586.387C350.034 586.458 349.961 586.565 349.865 586.707C349.673 586.99 349.388 587.411 349.022 587.953C348.292 589.038 347.24 590.609 345.963 592.541C343.406 596.409 339.96 601.705 336.392 607.428C332.815 613.167 329.164 619.258 326.175 624.735C323.073 630.418 321.06 634.768 320.327 637.26L314.942 655.576L303.352 640.406V640.405L303.342 640.392C303.332 640.379 303.315 640.357 303.292 640.327C303.246 640.267 303.174 640.175 303.079 640.051C302.887 639.804 302.597 639.432 302.22 638.952C301.464 637.992 300.356 636.601 298.971 634.905C296.193 631.506 292.325 626.917 287.951 622.132C283.558 617.326 278.76 612.439 274.116 608.386C269.313 604.195 265.314 601.468 262.496 600.314L252.14 596.074L257.83 586.438L290.737 530.706L298.611 517.367L307.145 530.294ZM716.381 519.597V519.596C716.381 519.597 716.381 519.598 716.382 519.598C716.384 519.6 716.389 519.603 716.396 519.607C716.411 519.616 716.435 519.631 716.468 519.651C716.534 519.693 716.637 519.758 716.775 519.843C717.052 520.015 717.469 520.272 718.011 520.602C719.095 521.263 720.676 522.214 722.634 523.351C726.559 525.633 731.948 528.641 737.839 531.577C743.764 534.53 750.009 537.314 755.682 539.229C761.657 541.247 765.81 541.878 768.036 541.636L780.863 540.242L778.61 552.947C778.61 552.948 778.61 552.95 778.609 552.952C778.608 552.956 778.607 552.964 778.605 552.973C778.602 552.994 778.596 553.025 778.589 553.067C778.574 553.151 778.552 553.279 778.522 553.447C778.464 553.784 778.377 554.285 778.267 554.929C778.048 556.219 777.734 558.084 777.365 560.37C776.626 564.948 775.663 571.192 774.766 577.877C773.865 584.579 773.043 591.633 772.57 597.854C772.08 604.31 772.034 609.103 772.392 611.676L775.017 630.585L758.213 621.524C758.21 621.523 758.205 621.52 758.198 621.516C758.184 621.509 758.159 621.495 758.126 621.477C758.059 621.442 757.956 621.387 757.818 621.314C757.542 621.167 757.124 620.947 756.583 620.665C755.499 620.101 753.917 619.289 751.957 618.313C748.027 616.358 742.615 613.765 736.659 611.202C730.679 608.628 724.294 606.148 718.394 604.364C712.293 602.519 707.527 601.678 704.483 601.785L693.3 602.18L694.522 591.056L701.594 526.722L703.286 511.325L716.381 519.597ZM714.823 583.505C717.907 584.115 721.012 584.934 723.996 585.837C730.848 587.908 737.961 590.692 744.309 593.424C747.465 594.781 750.467 596.141 753.198 597.42C753.223 597.076 753.244 596.732 753.27 596.388C753.782 589.646 754.658 582.186 755.583 575.3C756.346 569.615 757.155 564.258 757.839 559.925C754.98 559.299 752.154 558.467 749.491 557.568C742.657 555.261 735.539 552.056 729.206 548.9C725.622 547.114 722.23 545.309 719.205 543.644L714.823 583.505ZM298.354 436.122C298.356 436.123 298.36 436.126 298.364 436.13C298.372 436.136 298.387 436.146 298.406 436.161C298.446 436.191 298.507 436.237 298.591 436.3C298.758 436.425 299.01 436.613 299.34 436.855C299.999 437.34 300.963 438.038 302.159 438.88C304.558 440.567 307.854 442.803 311.475 445.018C315.121 447.248 318.962 449.374 322.465 450.906C326.188 452.534 328.674 453.101 329.904 453.075L339.578 452.866L337.071 462.212H337.07C337.07 462.212 337.071 462.213 337.07 462.215C337.069 462.217 337.069 462.223 337.067 462.229C337.064 462.242 337.058 462.262 337.051 462.288C337.037 462.341 337.014 462.422 336.986 462.528C336.93 462.741 336.847 463.059 336.74 463.468C336.526 464.287 336.22 465.473 335.853 466.926C335.12 469.839 334.148 473.815 333.194 478.076C332.238 482.35 331.315 486.843 330.664 490.813C329.985 494.957 329.704 497.963 329.784 499.532L330.518 513.831L318.551 505.97C318.549 505.97 318.547 505.968 318.543 505.966C318.534 505.96 318.52 505.95 318.5 505.937C318.46 505.911 318.397 505.871 318.312 505.816C318.144 505.707 317.889 505.542 317.557 505.331C316.892 504.908 315.92 504.297 314.713 503.559C312.292 502.081 308.954 500.11 305.267 498.13C301.563 496.139 297.61 494.195 293.942 492.729C290.128 491.205 287.215 490.443 285.406 490.349L277.024 489.918L278.659 481.687L286.845 440.487L289.108 429.092L298.354 436.122ZM294.3 477.453C296.014 477.983 297.709 478.602 299.33 479.25C303.69 480.993 308.17 483.209 312.139 485.342C313.649 486.153 315.101 486.962 316.462 487.737C317.164 483.579 318.097 479.07 319.029 474.905C319.759 471.642 320.497 468.552 321.137 465.953C319.58 465.43 318.067 464.827 316.648 464.207C312.303 462.306 307.838 459.809 303.901 457.401C302.143 456.326 300.464 455.249 298.914 454.228L294.3 477.453ZM713.28 404.67C713.281 404.671 713.286 404.674 713.29 404.677C713.298 404.684 713.312 404.694 713.331 404.709C713.37 404.738 713.433 404.785 713.517 404.847C713.684 404.972 713.936 405.161 714.266 405.403C714.925 405.888 715.889 406.586 717.085 407.427C719.484 409.115 722.78 411.351 726.401 413.566C730.047 415.796 733.886 417.922 737.39 419.454C741.112 421.082 743.598 421.649 744.829 421.623L754.504 421.414L751.997 430.76H751.996C751.996 430.76 751.995 430.761 751.995 430.762C751.994 430.765 751.994 430.771 751.992 430.777C751.989 430.79 751.983 430.81 751.976 430.836C751.962 430.889 751.94 430.969 751.912 431.076C751.855 431.289 751.773 431.607 751.666 432.016C751.452 432.835 751.146 434.021 750.779 435.475C750.045 438.388 749.074 442.363 748.12 446.624C747.164 450.897 746.24 455.391 745.59 459.361C744.911 463.505 744.628 466.51 744.709 468.08L745.443 482.379L733.476 474.518C733.475 474.517 733.472 474.516 733.469 474.513C733.46 474.508 733.445 474.499 733.425 474.486C733.385 474.46 733.322 474.418 733.238 474.364C733.069 474.255 732.814 474.09 732.482 473.879C731.818 473.456 730.846 472.845 729.639 472.107C727.218 470.628 723.88 468.658 720.193 466.677C716.489 464.687 712.536 462.743 708.868 461.277C705.054 459.753 702.14 458.99 700.331 458.897L691.949 458.466L693.585 450.235L701.77 409.035L704.034 397.639L713.28 404.67ZM734.262 217.402C732.366 233.96 730.481 253.739 729.595 271.054C728.997 282.731 728.879 292.854 729.424 300.005C729.533 301.435 729.662 302.647 729.799 303.656C732.269 303.975 735.56 304.355 739.655 304.778C747.744 305.613 758.028 306.532 769.087 307.449C784.48 308.726 801.269 309.989 815.534 311.013C814.175 309.093 812.801 307.354 811.791 306.173C789.416 280.789 744.238 229.381 734.262 217.402Z" fill="#DA8F52"/>
</svg>
