<svg width="1024" height="1024" viewBox="0 0 1024 1024" fill="none" xmlns="http://www.w3.org/2000/svg">
<rect width="1024" height="1024" fill="#FAF0DE"/>
<path d="M337.61 64.1788C340.029 63.9867 342.828 63.9676 345.742 64.0363C357.296 64.3087 375.85 66.1324 395.624 68.339C415.468 70.5534 437.565 73.2756 455.878 75.3829C474.78 77.5581 489.099 79.004 494.945 79.004C508.676 79.004 538.426 79.6911 565.58 80.0284C579.288 80.1987 592.418 80.2823 602.845 80.1564C608.066 80.0933 612.504 79.9788 615.946 79.8048C617.668 79.7178 619.055 79.6206 620.117 79.5177C621.162 79.4164 621.61 79.3364 621.653 79.3292C629.261 77.6386 641.812 77.3117 648.461 88.4933C651.305 93.2764 651.787 98.4735 651.471 102.771C651.151 107.128 649.945 111.592 648.289 115.94C646.125 121.62 642.874 125.451 639.764 128.147C640.436 129.067 641.228 130.114 642.161 131.297C646.017 136.192 648.413 141.339 649.392 146.568H753.949C761.229 146.27 773.237 149.405 782.078 160.657C787.769 167.9 842.981 230.754 870.305 261.752L870.369 261.823L870.43 261.896C872.828 264.693 876.335 269.209 879.333 274.025C880.832 276.433 882.367 279.178 883.568 282.001C884.666 284.583 886.001 288.399 886.001 292.617C886.001 293.53 885.898 296.506 885.744 300.632C884.786 326.35 881.197 412.571 877.454 494.477C875.582 535.431 873.671 575.343 872.03 606.092C871.21 621.46 870.454 634.583 869.803 644.418C869.187 653.742 868.605 661.201 868.028 664.318C867.49 667.226 866.173 679.7 864.347 699.294C862.564 718.433 860.372 743.46 858.055 770.635C853.423 824.978 848.306 887.809 845.009 929.084L844.945 929.885L844.787 930.674C843.63 936.46 840.286 944.135 833.791 950.368C826.886 956.995 816.874 961.513 803.961 960.731C781.983 959.399 654.677 960.755 621.202 960.755C612.124 960.755 584 958.211 547.636 954.478C510.793 950.695 464.408 945.569 417.962 940.191C371.515 934.812 324.959 929.174 287.771 924.365C251.016 919.612 222.443 915.553 212.746 913.316C204.114 911.324 195.852 909.704 188.047 908.143C180.389 906.611 172.97 905.098 166.616 903.382C160.505 901.732 153.98 899.548 148.828 896.108C143.224 892.366 137.521 885.806 138.032 876.094L138.087 875.257C138.434 870.679 139.866 860.289 141.674 847.83C143.664 834.111 146.273 816.835 148.916 799.358C154.254 764.055 159.621 728.628 160.598 718.528C161.583 708.356 165.829 631.364 169.765 552.809C173.711 474.068 177.244 395.679 176.919 382.354C176.566 367.879 177.437 321.592 179.228 276.802C180.127 254.338 181.265 232.042 182.615 214.101C183.289 205.142 184.026 197.14 184.829 190.69C185.573 184.706 186.516 178.742 187.946 174.736C192.085 163.147 198.32 153.884 208.515 147.64C218.124 141.755 229.783 139.499 242.663 138.426C249.709 137.839 276.109 138.135 310.725 138.797C313.724 138.854 316.793 138.916 319.927 138.98C318.972 137.521 318.046 136.011 317.246 134.526C314.698 129.792 311.775 122.478 313.779 114.061C315.44 107.085 319.47 101.45 325.844 98.3908C328.65 97.0436 331.519 96.426 333.958 96.1408C333.239 95.3387 332.509 94.6036 331.839 93.9806C329.917 93.0362 327.652 91.7335 325.8 89.9855C324.747 88.9921 321.145 85.417 321.009 79.5158C320.842 72.2847 325.725 68.2763 328.025 66.879C330.296 65.5 332.532 64.9593 333.673 64.7199C335.04 64.4327 336.405 64.2746 337.61 64.1788ZM310.204 166.091C274.536 165.409 250.169 165.194 244.929 165.631C233.241 166.605 226.813 168.445 222.773 170.919C219.319 173.035 216.341 176.399 213.655 183.918C213.651 183.929 213.63 183.992 213.595 184.112C213.553 184.259 213.498 184.463 213.432 184.733C213.3 185.279 213.146 186.001 212.977 186.919C212.637 188.763 212.281 191.146 211.919 194.061C211.194 199.886 210.495 207.396 209.837 216.15C208.521 233.633 207.399 255.57 206.506 277.893C204.714 322.674 203.879 368.179 204.209 381.688C204.566 396.343 200.933 476.289 197.03 554.175C193.118 632.242 188.834 710.167 187.77 721.158C186.7 732.215 181.148 768.79 175.908 803.44C173.262 820.938 170.667 838.128 168.69 851.75C167.181 862.154 166.115 869.945 165.611 874.28C167.251 875.038 169.84 875.976 173.733 877.027C179.067 878.468 185.596 879.813 193.4 881.374C201.057 882.906 209.772 884.613 218.885 886.716C226.933 888.573 253.81 892.448 291.272 897.292C328.303 902.081 374.733 907.703 421.102 913.073C467.471 918.443 513.732 923.554 550.425 927.321C587.597 931.138 613.9 933.456 621.202 933.456C653.245 933.456 782.546 932.084 805.612 933.482C810.716 933.791 813.331 932.167 814.888 930.672C816.574 929.054 817.516 927.039 817.882 925.843C821.184 884.528 826.257 822.258 830.855 768.317C833.174 741.117 835.374 716.007 837.167 696.762C838.917 677.972 840.359 663.811 841.185 659.348C841.19 659.319 841.207 659.215 841.234 659.016C841.269 658.757 841.312 658.407 841.361 657.956C841.461 657.05 841.574 655.859 841.701 654.372C841.955 651.402 842.244 647.452 842.564 642.615C843.204 632.953 843.952 619.965 844.77 604.637C846.406 573.992 848.313 534.162 850.183 493.231C853.429 422.203 856.557 347.962 857.952 312.822C840.635 311.597 818.981 309.985 799.301 308.353C786.75 307.312 774.938 306.258 765.545 305.288C756.657 304.371 748.719 303.419 744.831 302.446C739.826 301.195 736.742 297.923 735.088 295.532C733.44 293.151 732.466 290.613 731.846 288.586C730.597 284.499 729.951 279.639 729.584 274.823C728.834 264.991 729.042 252.184 729.733 238.687C730.816 217.526 733.157 193.459 735.44 173.867H641.742C640.974 174.887 640.215 175.827 639.497 176.681C637.657 178.869 635.759 180.874 634.253 182.466C636.846 185.964 639.462 190.145 641.193 194.646C642.796 198.813 644.061 204.314 642.914 210.296C641.682 216.716 637.976 222.091 632.486 225.967C629.127 228.338 625.189 229.146 623.234 229.509C620.664 229.986 617.728 230.288 614.682 230.49C608.549 230.898 600.762 230.971 592.083 230.83C574.656 230.547 552.548 229.378 530.556 227.923C486.518 225.01 442.18 220.902 434.959 220.214C431.804 219.914 423.707 219.549 412.311 219.013C401.205 218.49 387.505 217.823 373.843 216.918C360.228 216.016 346.406 214.862 335.099 213.339C329.465 212.58 324.189 211.695 319.759 210.636C315.937 209.722 310.715 208.247 306.782 205.406C303.774 203.234 300.775 200.127 299.084 195.795C297.332 191.308 297.523 186.895 298.586 183.206C300.43 176.803 305.14 171.789 308.33 168.688C309.212 167.83 310.143 166.966 311.101 166.109C310.802 166.103 310.502 166.097 310.204 166.091ZM335.893 790.636C352.028 789.365 368.906 790.793 379.674 792.49L377.548 805.974L375.422 819.456C366.184 818 351.517 816.788 338.036 817.85C331.295 818.381 325.379 819.442 320.782 821.033C316.042 822.674 313.951 824.442 313.168 825.508C302.171 840.48 296.579 857.13 295.32 862.746L282.002 859.761L268.683 856.775C270.625 848.113 277.582 827.843 291.167 809.348C296.53 802.047 304.434 797.805 311.852 795.236C319.415 792.619 327.827 791.271 335.893 790.636ZM426.367 290.316C452.831 271.752 490.243 265.916 526.856 268.685C563.751 271.474 602.176 283.149 631.989 302.288C665.467 323.781 675.202 364.988 677.725 399.188C679.026 416.808 678.501 433.841 677.685 447.691C676.818 462.414 675.8 471.72 675.8 476.885C675.799 484.354 674.265 491.317 670.537 497.263C666.749 503.303 661.429 507.129 655.907 509.485C645.865 513.772 633.486 513.737 624.615 513.737C612.851 513.737 599.08 510.468 587.862 504.118C576.905 497.916 565.24 486.752 565.24 470.06V390.893C565.239 385.044 559.401 376.04 545.555 370.574C532.528 365.432 517.107 365.68 505.247 373.586C492.32 382.204 484.077 396.275 483.148 411.596C482.238 426.608 488.307 444.094 506.545 459.685C516.834 468.481 529.694 478.087 544.552 489.744C559.152 501.198 575.136 514.224 590.529 529.083C621.261 558.75 650.411 596.447 661.792 645.074C669.869 679.587 668.785 724.867 653.66 764.468C638.388 804.453 608.197 839.816 557.856 850.576C460.526 871.38 365.532 810.692 343.689 698.568C335.295 655.479 336.577 626.35 343.153 607.19C349.733 588.019 362.681 576.942 376.996 576.535C391.651 575.715 413.875 577.121 430.403 585.925C439.036 590.524 447.342 597.829 450.964 609.008C454.582 620.177 452.637 632.482 446.506 645.229C441.375 655.896 439.235 670.537 440.488 686.656C441.732 702.655 446.244 719.022 453.249 732.615C460.332 746.36 469.335 756.104 478.845 760.724C487.637 764.994 498.291 765.63 511.613 758.363C540.697 742.499 552.918 716.748 555.771 691.443C557.209 678.687 556.218 666.224 553.791 655.64C551.315 644.843 547.566 636.937 544.26 632.718C540.009 627.295 529.371 618.056 513.702 605.416C498.783 593.382 479.858 578.676 461.594 563.643C443.205 548.506 424.648 532.37 409.65 516.693C395.049 501.431 382.214 485.001 377.459 469.221C369.156 441.67 368.767 406.289 376.289 373.665C383.774 341.201 399.685 309.033 426.367 290.316ZM287.242 742.89C309.214 741.547 332.38 743.061 347.129 744.865L345.47 758.413L343.813 771.962C330.268 770.305 308.82 768.921 288.907 770.138C278.94 770.747 269.803 771.983 262.415 773.968C254.693 776.042 250.54 778.502 248.774 780.368C233 797.035 225.16 815.334 223.455 821.236L210.342 817.447L197.228 813.659C200.05 803.892 209.956 781.669 228.948 761.603C235.874 754.286 245.856 750.149 255.333 747.604C265.142 744.969 276.267 743.561 287.242 742.89ZM750.159 657.692L750.16 657.704C750.162 657.716 750.166 657.736 750.171 657.763C750.18 657.818 750.195 657.905 750.215 658.021C750.254 658.253 750.315 658.603 750.396 659.056C750.559 659.964 750.804 661.286 751.13 662.903C751.782 666.148 752.745 670.538 753.988 675.163C755.24 679.82 756.731 684.543 758.408 688.518C760.191 692.742 761.786 695.136 762.813 696.07L770.893 703.415L761.582 709.115V709.116L761.566 709.126C761.554 709.134 761.534 709.145 761.508 709.161C761.455 709.194 761.374 709.244 761.268 709.31C761.056 709.441 760.74 709.635 760.335 709.887C759.524 710.391 758.352 711.124 756.923 712.029C754.06 713.843 750.178 716.341 746.089 719.088C741.986 721.843 737.74 724.805 734.124 727.549C730.35 730.413 727.785 732.653 726.632 734L716.126 746.274L712.436 730.545C712.436 730.543 712.435 730.539 712.434 730.534C712.432 730.523 712.427 730.504 712.421 730.478C712.408 730.425 712.389 730.343 712.362 730.234C712.309 730.013 712.228 729.681 712.12 729.25C711.904 728.388 711.583 727.132 711.168 725.591C710.335 722.501 709.134 718.296 707.655 713.812C706.169 709.305 704.444 704.644 702.581 700.595C700.643 696.384 698.85 693.497 697.441 692.016L690.917 685.153L698.649 679.687L737.348 652.323L748.052 644.756L750.159 657.692ZM714.738 688.369C715.729 690.134 716.636 691.957 717.46 693.746C719.675 698.56 721.618 703.854 723.211 708.682C723.817 710.519 724.378 712.307 724.889 713.999C728.694 711.142 732.959 708.175 736.957 705.49C740.088 703.387 743.092 701.431 745.635 699.801C744.766 698.163 743.996 696.496 743.317 694.886C741.236 689.955 739.522 684.443 738.171 679.414C737.567 677.169 737.028 674.984 736.552 672.945L714.738 688.369ZM280.334 532.589C280.334 532.589 280.334 532.591 280.335 532.592C280.337 532.595 280.34 532.6 280.344 532.608C280.355 532.623 280.374 532.649 280.398 532.686C280.447 532.759 280.523 532.873 280.625 533.026C280.829 533.33 281.139 533.789 281.543 534.38C282.351 535.562 283.538 537.273 285.023 539.352C288.002 543.52 292.147 549.115 296.844 554.868C301.567 560.655 306.698 566.418 311.643 571.02C316.853 575.868 320.83 578.444 323.232 579.229L337.071 583.748L328.858 595.769L328.855 595.774C328.852 595.778 328.848 595.785 328.842 595.794C328.829 595.813 328.807 595.843 328.78 595.883C328.726 595.963 328.644 596.084 328.536 596.243C328.319 596.563 327.998 597.037 327.586 597.649C326.761 598.873 325.574 600.645 324.134 602.825C321.248 607.19 317.361 613.166 313.335 619.624C309.298 626.1 305.179 632.972 301.805 639.151C298.305 645.563 296.034 650.471 295.208 653.283L289.132 673.95L276.053 656.833C276.052 656.831 276.048 656.825 276.043 656.818C276.031 656.803 276.012 656.778 275.986 656.744C275.934 656.677 275.854 656.572 275.746 656.433C275.529 656.153 275.203 655.734 274.777 655.193C273.924 654.109 272.675 652.54 271.111 650.627C267.977 646.792 263.612 641.614 258.677 636.214C253.72 630.792 248.305 625.277 243.065 620.704C237.646 615.976 233.135 612.899 229.956 611.597L218.27 606.813L224.69 595.94L261.819 533.056L270.706 518.005L280.334 532.589ZM742.088 520.521C742.088 520.521 742.089 520.522 742.09 520.523C742.092 520.524 742.098 520.528 742.105 520.532C742.121 520.542 742.148 520.559 742.185 520.582C742.26 520.629 742.377 520.702 742.533 520.799C742.845 520.993 743.315 521.283 743.927 521.655C745.15 522.401 746.935 523.472 749.143 524.756C753.573 527.33 759.653 530.725 766.3 534.037C772.985 537.369 780.032 540.511 786.432 542.672C793.175 544.948 797.861 545.661 800.373 545.388L814.845 543.816L812.303 558.151L812.302 558.155C812.302 558.16 812.301 558.169 812.299 558.18C812.295 558.203 812.287 558.239 812.279 558.286C812.262 558.381 812.238 558.526 812.205 558.716C812.139 559.096 812.041 559.66 811.917 560.387C811.669 561.842 811.316 563.947 810.899 566.526C810.065 571.692 808.979 578.737 807.966 586.279C806.95 593.842 806.021 601.8 805.488 608.82C804.935 616.104 804.884 621.512 805.287 624.415L808.249 645.752L789.288 635.528C789.285 635.527 789.28 635.524 789.272 635.52C789.256 635.511 789.228 635.496 789.19 635.476C789.115 635.436 788.998 635.374 788.843 635.291C788.53 635.126 788.061 634.877 787.45 634.559C786.227 633.922 784.442 633.006 782.23 631.905C777.796 629.699 771.688 626.774 764.969 623.882C758.22 620.978 751.017 618.178 744.36 616.165C737.476 614.084 732.098 613.136 728.664 613.257L716.046 613.702L717.425 601.151L725.404 528.561L727.313 511.188L742.088 520.521ZM740.332 592.63C743.811 593.319 747.313 594.243 750.68 595.261C758.412 597.598 766.438 600.738 773.601 603.82C777.16 605.352 780.547 606.887 783.627 608.329C783.654 607.942 783.682 607.554 783.712 607.167C784.289 599.56 785.276 591.142 786.32 583.371C787.181 576.959 788.093 570.916 788.865 566.027C785.639 565.321 782.452 564.379 779.447 563.364C771.736 560.761 763.704 557.145 756.558 553.584C752.515 551.569 748.687 549.534 745.274 547.655L740.332 592.63ZM270.416 426.333L270.425 426.342C270.434 426.349 270.45 426.36 270.472 426.377C270.517 426.411 270.588 426.464 270.682 426.534C270.871 426.675 271.155 426.888 271.526 427.16C272.27 427.707 273.359 428.496 274.708 429.445C277.414 431.35 281.134 433.872 285.219 436.371C289.333 438.888 293.666 441.286 297.619 443.015C301.82 444.852 304.625 445.491 306.013 445.461L316.93 445.227L314.1 455.772V455.773L314.095 455.79C314.092 455.804 314.085 455.827 314.077 455.857C314.061 455.916 314.037 456.008 314.006 456.128C313.942 456.369 313.847 456.728 313.726 457.19C313.485 458.114 313.14 459.451 312.726 461.092C311.898 464.378 310.802 468.862 309.726 473.67C308.647 478.492 307.606 483.563 306.872 488.043C306.106 492.719 305.787 496.11 305.878 497.881L306.706 514.015L293.203 505.146C293.201 505.145 293.198 505.142 293.194 505.14C293.184 505.133 293.167 505.123 293.145 505.109C293.1 505.079 293.029 505.032 292.934 504.971C292.744 504.848 292.456 504.663 292.082 504.425C291.332 503.948 290.235 503.257 288.873 502.425C286.142 500.756 282.375 498.534 278.216 496.299C274.036 494.053 269.576 491.859 265.437 490.205C261.133 488.485 257.845 487.625 255.803 487.52L246.347 487.033L248.192 477.745L257.428 431.259L259.982 418.401L270.416 426.333ZM265.84 472.968C267.774 473.566 269.686 474.264 271.515 474.995C276.435 476.962 281.489 479.464 285.968 481.87C287.672 482.786 289.311 483.696 290.846 484.571C291.639 479.88 292.69 474.793 293.742 470.094C294.566 466.413 295.398 462.926 296.12 459.993C294.363 459.403 292.657 458.723 291.056 458.023C286.153 455.878 281.115 453.06 276.673 450.343C274.689 449.13 272.795 447.916 271.047 446.765L265.84 472.968ZM738.59 390.845L738.599 390.854C738.609 390.861 738.625 390.872 738.647 390.889C738.692 390.922 738.762 390.976 738.856 391.046C739.045 391.187 739.33 391.399 739.701 391.672C740.445 392.219 741.533 393.008 742.882 393.957C745.588 395.861 749.308 398.384 753.394 400.883C757.508 403.399 761.84 405.798 765.793 407.526C769.994 409.364 772.8 410.003 774.188 409.973L785.104 409.738L782.274 420.283V420.284L782.27 420.302C782.266 420.316 782.26 420.338 782.252 420.368C782.236 420.428 782.211 420.52 782.179 420.64C782.116 420.881 782.022 421.24 781.901 421.701C781.66 422.625 781.314 423.963 780.9 425.604C780.072 428.89 778.977 433.374 777.901 438.182C776.822 443.004 775.78 448.075 775.046 452.555C774.279 457.231 773.961 460.622 774.052 462.393L774.881 478.526L761.378 469.657C761.376 469.656 761.372 469.654 761.368 469.651C761.358 469.645 761.341 469.634 761.319 469.619C761.274 469.59 761.204 469.544 761.109 469.483C760.919 469.359 760.63 469.175 760.256 468.937C759.506 468.459 758.409 467.769 757.047 466.937C754.316 465.268 750.55 463.045 746.39 460.811C742.21 458.565 737.75 456.371 733.611 454.717C729.307 452.997 726.02 452.136 723.978 452.031L714.521 451.545L716.367 442.257L725.602 395.77L728.157 382.912L738.59 390.845ZM762.262 179.542C760.123 198.226 757.996 220.544 756.996 240.082C756.322 253.257 756.188 264.679 756.803 272.747C756.927 274.361 757.074 275.728 757.227 276.866C760.014 277.226 763.728 277.657 768.348 278.134C777.476 279.076 789.078 280.113 801.556 281.148C818.925 282.588 837.868 284.013 853.965 285.169C852.428 282.998 850.875 281.033 849.734 279.699C824.485 251.055 773.516 193.056 762.262 179.542Z" fill="#DA8F52"/>
</svg>
