<svg width="1024" height="1024" viewBox="0 0 1024 1024" fill="none" xmlns="http://www.w3.org/2000/svg">
<rect width="1024" height="1024" rx="500" fill="#FAF0DE"/>
<path d="M357.908 115.159C360.051 114.988 362.532 114.971 365.114 115.032C375.354 115.273 391.798 116.891 409.323 118.846C426.911 120.809 446.493 123.221 462.724 125.088C479.476 127.016 492.166 128.297 497.348 128.297C509.516 128.297 535.883 128.907 559.949 129.206C572.098 129.356 583.735 129.43 592.976 129.319C597.603 129.263 601.536 129.161 604.587 129.007C606.113 128.93 607.343 128.844 608.284 128.752C609.216 128.662 609.611 128.591 609.645 128.585C616.388 127.087 627.511 126.798 633.403 136.708C635.924 140.947 636.351 145.553 636.071 149.362C635.787 153.224 634.719 157.178 633.251 161.032C631.333 166.066 628.452 169.462 625.696 171.851C626.292 172.667 626.994 173.594 627.82 174.643C631.238 178.981 633.361 183.543 634.229 188.178H726.887C733.338 187.911 743.986 190.688 751.824 200.664C756.238 206.281 794.253 249.632 819.911 278.787L830.017 290.261L830.072 290.324L830.127 290.387C832.252 292.866 835.36 296.869 838.017 301.137C839.345 303.272 840.706 305.705 841.77 308.207C842.744 310.495 843.927 313.877 843.927 317.616C843.927 318.425 843.835 321.063 843.699 324.719C842.85 347.513 839.67 423.928 836.352 496.517C834.694 532.813 833 568.185 831.545 595.437C830.818 609.057 830.149 620.687 829.572 629.404C829.025 637.667 828.509 644.279 827.998 647.041C827.521 649.619 826.354 660.674 824.736 678.039C823.156 695.001 821.212 717.181 819.159 741.266C815.054 789.429 810.52 845.113 807.598 881.693L807.54 882.404L807.4 883.102C806.375 888.23 803.411 895.032 797.654 900.557C791.534 906.43 782.662 910.434 771.218 909.741C751.74 908.56 638.913 909.762 609.245 909.762C601.199 909.762 576.274 907.507 544.047 904.199C511.394 900.846 470.284 896.304 429.12 891.537C387.956 886.769 346.695 881.773 313.737 877.511C281.162 873.299 255.839 869.701 247.245 867.718C239.595 865.953 232.272 864.518 225.354 863.134C218.568 861.777 211.992 860.435 206.361 858.915C200.945 857.452 195.163 855.517 190.597 852.467C185.63 849.151 180.575 843.337 181.028 834.73L181.077 833.989C181.385 829.932 182.654 820.723 184.256 809.681C186.02 797.522 188.332 782.211 190.675 766.721C195.406 735.434 200.162 704.037 201.028 695.085C201.9 686.071 205.664 617.835 209.152 548.213C212.649 478.429 215.78 408.958 215.492 397.146C215.179 384.318 215.951 343.295 217.539 303.598C218.335 283.689 219.344 263.929 220.541 248.029C221.138 240.089 221.792 232.998 222.503 227.281C223.163 221.978 223.998 216.692 225.266 213.142C228.934 202.871 234.46 194.662 243.495 189.127C252.011 183.911 262.344 181.913 273.759 180.961C280.003 180.441 303.401 180.704 334.08 181.291C336.737 181.341 339.458 181.397 342.235 181.453C341.39 180.16 340.568 178.821 339.859 177.504C337.601 173.309 335.011 166.828 336.787 159.368C338.259 153.186 341.83 148.191 347.478 145.48C349.966 144.286 352.508 143.738 354.67 143.485C354.029 142.77 353.377 142.116 352.779 141.562C351.079 140.726 349.078 139.575 347.44 138.03C346.507 137.15 343.315 133.981 343.194 128.751C343.047 122.343 347.374 118.791 349.413 117.552C351.425 116.33 353.407 115.85 354.418 115.638C355.63 115.384 356.84 115.244 357.908 115.159ZM333.618 205.48C302.008 204.876 280.413 204.685 275.769 205.072C265.409 205.935 259.713 207.566 256.132 209.759C253.071 211.634 250.431 214.615 248.051 221.279C248.047 221.288 248.028 221.344 247.997 221.452C247.96 221.581 247.911 221.763 247.853 222.001C247.736 222.486 247.599 223.126 247.449 223.939C247.148 225.573 246.833 227.685 246.512 230.268C245.869 235.431 245.251 242.087 244.667 249.844C243.501 265.339 242.505 284.781 241.714 304.565C240.126 344.254 239.387 384.585 239.679 396.556C239.995 409.547 236.775 480.398 233.316 549.424C229.849 618.613 226.052 687.676 225.109 697.416C224.161 707.217 219.24 739.631 214.597 770.339C212.252 785.847 209.951 801.082 208.199 813.155C206.861 822.375 205.917 829.28 205.471 833.123C206.924 833.794 209.219 834.626 212.67 835.558C217.397 836.835 223.183 838.026 230.1 839.41C236.885 840.767 244.609 842.28 252.685 844.144C259.817 845.79 283.638 849.224 316.84 853.517C349.659 857.761 390.809 862.744 431.904 867.503C472.999 872.263 513.999 876.793 546.518 880.131C579.462 883.514 602.774 885.569 609.245 885.569C637.643 885.569 752.239 884.351 772.682 885.59C777.205 885.864 779.522 884.426 780.902 883.101C782.397 881.666 783.232 879.88 783.556 878.82C786.482 842.204 790.978 787.017 795.053 739.211C797.108 715.105 799.057 692.851 800.646 675.794C802.198 659.142 803.476 646.592 804.209 642.636C804.213 642.612 804.227 642.52 804.251 642.341C804.282 642.112 804.32 641.802 804.364 641.402C804.452 640.599 804.553 639.543 804.666 638.226C804.891 635.594 805.147 632.092 805.431 627.806C805.997 619.242 806.66 607.731 807.385 594.147C808.834 566.988 810.526 531.688 812.184 495.413C815.06 432.463 817.831 366.665 819.067 335.522C803.72 334.436 784.528 333.008 767.087 331.561C755.964 330.639 745.496 329.705 737.171 328.845C729.294 328.032 722.26 327.188 718.813 326.327C714.378 325.218 711.644 322.318 710.178 320.199C708.717 318.088 707.855 315.839 707.306 314.042C706.198 310.421 705.625 306.113 705.3 301.845C704.635 293.132 704.819 281.781 705.432 269.819C706.391 251.065 708.466 229.735 710.49 212.372H627.449C626.768 213.275 626.095 214.108 625.459 214.865C623.828 216.804 622.147 218.581 620.811 219.992C623.11 223.092 625.428 226.798 626.962 230.787C628.382 234.48 629.504 239.355 628.487 244.657C627.396 250.346 624.111 255.111 619.245 258.545C616.268 260.647 612.778 261.363 611.046 261.684C608.768 262.107 606.166 262.375 603.467 262.554C598.031 262.915 591.13 262.981 583.437 262.856C567.993 262.605 548.4 261.569 528.909 260.28C489.88 257.698 450.585 254.056 444.185 253.447C441.388 253.18 434.212 252.858 424.112 252.382C414.269 251.919 402.128 251.328 390.019 250.526C377.953 249.727 365.704 248.704 355.683 247.354C350.689 246.681 346.013 245.897 342.087 244.958C338.7 244.149 334.07 242.841 330.585 240.324C327.919 238.398 325.262 235.644 323.763 231.805C322.21 227.828 322.38 223.917 323.321 220.648C324.956 214.973 329.13 210.529 331.957 207.781C332.739 207.021 333.565 206.256 334.414 205.496C334.148 205.49 333.883 205.485 333.618 205.48ZM388.56 776.666C380.669 779.185 370.81 781.958 361.727 785.891C357.254 787.828 353.375 789.884 350.354 792.055C347.285 794.261 345.641 796.201 344.884 797.71C337.472 812.478 338.45 824.007 339.186 826.957L318.813 832.045C316.823 824.076 316.521 807.409 326.116 788.291C328.941 782.664 333.466 778.334 338.1 775.004C342.782 771.639 348.14 768.892 353.383 766.622C363.733 762.14 375.226 758.881 382.176 756.663L388.56 776.666ZM436.569 315.575C460.023 299.122 493.181 293.951 525.63 296.405C558.329 298.877 592.382 309.224 618.805 326.186C648.475 345.234 657.102 381.754 659.339 412.064C660.491 427.681 660.027 442.777 659.304 455.051C658.535 468.1 657.633 476.347 657.633 480.924C657.633 487.544 656.273 493.715 652.969 498.985C649.612 504.338 644.897 507.729 640.003 509.818C631.103 513.617 620.131 513.586 612.269 513.586C601.844 513.586 589.639 510.689 579.697 505.061C569.986 499.564 559.647 489.67 559.647 474.875V404.713C559.647 399.53 554.473 391.549 542.202 386.706C530.657 382.148 516.989 382.368 506.477 389.375C495.021 397.013 487.716 409.483 486.893 423.061C486.086 436.365 491.464 451.864 507.628 465.681C516.747 473.477 528.145 481.991 541.313 492.322C554.253 502.473 568.419 514.018 582.06 527.187C609.297 553.479 635.131 586.889 645.218 629.985C652.376 660.572 651.416 700.702 638.011 735.799C624.475 771.237 597.719 802.578 553.103 812.115C466.843 830.552 382.653 776.766 363.295 677.394C355.856 639.206 356.991 613.39 362.819 596.41C368.648 579.429 380.113 569.614 392.79 569.243C405.778 568.512 425.489 569.755 440.146 577.563C447.798 581.639 455.159 588.113 458.368 598.021C461.575 607.92 459.852 618.826 454.418 630.123C449.871 639.576 447.973 652.552 449.084 666.837C450.186 681.016 454.185 695.523 460.394 707.57C466.671 719.751 474.651 728.387 483.08 732.481C490.871 736.265 500.313 736.829 512.12 730.389C537.896 716.329 548.727 693.507 551.256 671.08C552.53 659.775 551.652 648.73 549.501 639.349C547.306 629.78 543.984 622.774 541.054 619.035C537.287 614.229 527.858 606.039 513.972 594.837C500.749 584.171 483.977 571.138 467.79 557.815C451.492 544.4 435.046 530.1 421.754 516.207C408.813 502.68 397.438 488.118 393.224 474.132C385.865 449.715 385.52 418.358 392.186 389.445C398.82 360.673 412.922 332.163 436.569 315.575ZM313.268 716.678C332.74 715.488 353.272 716.829 366.343 718.428L364.874 730.436L363.404 742.444C351.4 740.975 332.392 739.748 314.744 740.827C305.911 741.367 297.813 742.462 291.265 744.221C284.421 746.06 280.741 748.24 279.176 749.894C271.137 758.388 265.604 763.921 261.457 768.582C257.188 773.38 256.295 775.26 256.122 775.859L232.878 769.144C234.711 762.799 239.061 757.355 243.383 752.499C247.828 747.503 254.237 741.047 261.604 733.263C267.742 726.778 276.59 723.112 284.988 720.856C293.682 718.521 303.541 717.273 313.268 716.678ZM723.533 641.17C723.533 641.172 723.534 641.177 723.535 641.182C723.537 641.192 723.54 641.21 723.544 641.234C723.552 641.283 723.565 641.359 723.583 641.461C723.618 641.667 723.672 641.977 723.744 642.379C723.889 643.185 724.107 644.356 724.395 645.79C724.974 648.665 725.826 652.556 726.928 656.655C728.037 660.782 729.358 664.967 730.845 668.49C732.425 672.234 733.838 674.356 734.749 675.184L741.91 681.692L733.658 686.746H733.657L733.655 686.747C733.653 686.748 733.649 686.752 733.644 686.755C733.632 686.762 733.614 686.772 733.591 686.787C733.544 686.815 733.473 686.859 733.379 686.916C733.191 687.032 732.912 687.206 732.553 687.429C731.834 687.876 730.796 688.525 729.529 689.328C726.992 690.935 723.551 693.149 719.926 695.583C716.29 698.025 712.527 700.65 709.322 703.082C705.977 705.62 703.703 707.607 702.682 708.8L693.372 719.677L690.102 705.738C690.101 705.736 690.101 705.733 690.1 705.729C690.097 705.719 690.092 705.701 690.087 705.678C690.076 705.632 690.059 705.559 690.035 705.461C689.988 705.266 689.917 704.971 689.821 704.589C689.63 703.825 689.345 702.713 688.977 701.347C688.24 698.608 687.175 694.881 685.864 690.907C684.547 686.913 683.018 682.781 681.367 679.193C679.65 675.462 678.061 672.904 676.812 671.591L671.03 665.508L677.882 660.664L712.18 636.414L721.666 629.706L723.533 641.17ZM692.142 668.359C693.02 669.923 693.824 671.539 694.554 673.124C696.517 677.39 698.24 682.082 699.651 686.361C700.188 687.989 700.684 689.574 701.138 691.074C704.509 688.541 708.29 685.912 711.833 683.533C714.609 681.669 717.271 679.935 719.524 678.49C718.755 677.039 718.073 675.561 717.471 674.134C715.626 669.764 714.107 664.879 712.909 660.422C712.374 658.432 711.897 656.496 711.476 654.689L692.142 668.359ZM307.145 530.293V530.294C307.147 530.297 307.151 530.301 307.155 530.308L307.403 530.68C307.585 530.95 307.859 531.356 308.217 531.879C308.933 532.927 309.984 534.444 311.301 536.287C313.94 539.981 317.614 544.94 321.776 550.039C325.963 555.167 330.51 560.274 334.893 564.352C339.51 568.649 343.036 570.933 345.165 571.628L357.43 575.633L350.151 586.287C350.151 586.287 350.149 586.29 350.147 586.291C350.145 586.295 350.14 586.301 350.135 586.309C350.123 586.326 350.106 586.352 350.082 586.387C350.034 586.458 349.961 586.566 349.865 586.708C349.673 586.99 349.388 587.41 349.022 587.953C348.292 589.038 347.24 590.609 345.963 592.541C343.406 596.41 339.96 601.705 336.393 607.429C332.815 613.168 329.164 619.259 326.175 624.736C323.073 630.418 321.06 634.768 320.327 637.26L314.942 655.576L303.352 640.406V640.405L303.342 640.392C303.332 640.379 303.315 640.357 303.292 640.328C303.246 640.268 303.175 640.175 303.079 640.051C302.887 639.804 302.597 639.432 302.22 638.953C301.464 637.993 300.356 636.602 298.971 634.906C296.193 631.507 292.326 626.918 287.951 622.132C283.558 617.327 278.76 612.439 274.116 608.386C269.313 604.195 265.314 601.468 262.496 600.314L252.14 596.075L257.83 586.438L290.737 530.706L298.611 517.368L307.145 530.293ZM716.381 519.597V519.596C716.381 519.596 716.381 519.597 716.382 519.598C716.384 519.6 716.389 519.602 716.396 519.607C716.411 519.616 716.435 519.63 716.468 519.651C716.534 519.692 716.637 519.757 716.775 519.843C717.052 520.015 717.469 520.272 718.011 520.602C719.095 521.263 720.676 522.213 722.634 523.351C726.559 525.633 731.948 528.641 737.839 531.577C743.764 534.53 750.009 537.314 755.682 539.229C761.658 541.246 765.81 541.878 768.036 541.636L780.863 540.242L778.61 552.947C778.61 552.948 778.61 552.95 778.609 552.952C778.609 552.956 778.607 552.963 778.605 552.973C778.602 552.993 778.596 553.025 778.589 553.067C778.574 553.151 778.552 553.279 778.522 553.448C778.464 553.785 778.377 554.285 778.268 554.929C778.048 556.218 777.735 558.084 777.365 560.37C776.626 564.947 775.664 571.192 774.766 577.876C773.865 584.579 773.043 591.632 772.57 597.854C772.08 604.309 772.034 609.102 772.392 611.675L775.018 630.585L758.213 621.525C758.21 621.524 758.205 621.52 758.198 621.516C758.184 621.508 758.159 621.496 758.126 621.478C758.06 621.443 757.956 621.387 757.818 621.314C757.542 621.167 757.124 620.947 756.583 620.666C755.499 620.101 753.918 619.289 751.957 618.313C748.027 616.357 742.615 613.765 736.659 611.203C730.679 608.629 724.294 606.148 718.394 604.364C712.293 602.519 707.527 601.678 704.483 601.786L693.3 602.18L694.522 591.057L701.594 526.722L703.286 511.325L716.381 519.597ZM714.823 583.505C717.907 584.116 721.012 584.935 723.996 585.837C730.848 587.909 737.961 590.692 744.31 593.423C747.465 594.781 750.467 596.142 753.198 597.42C753.223 597.076 753.244 596.732 753.27 596.388C753.782 589.646 754.658 582.186 755.583 575.299C756.347 569.615 757.155 564.258 757.839 559.924C754.98 559.298 752.154 558.467 749.491 557.568C742.657 555.261 735.539 552.056 729.206 548.9C725.622 547.114 722.23 545.31 719.205 543.645L714.823 583.505ZM298.354 436.123C298.356 436.123 298.36 436.126 298.364 436.129C298.373 436.136 298.387 436.147 298.406 436.162C298.446 436.191 298.508 436.237 298.591 436.299C298.758 436.424 299.011 436.613 299.34 436.855C299.999 437.339 300.964 438.038 302.159 438.879C304.558 440.567 307.855 442.803 311.476 445.018C315.121 447.248 318.962 449.374 322.465 450.906C326.188 452.534 328.674 453.101 329.904 453.075L339.578 452.866L337.071 462.211H337.07C337.07 462.212 337.071 462.214 337.07 462.215C337.07 462.218 337.069 462.223 337.067 462.229C337.064 462.242 337.058 462.261 337.051 462.288C337.037 462.341 337.014 462.421 336.986 462.528C336.93 462.741 336.847 463.059 336.74 463.468C336.526 464.287 336.22 465.473 335.853 466.927C335.12 469.84 334.148 473.815 333.194 478.076C332.238 482.35 331.315 486.844 330.664 490.814C329.985 494.957 329.704 497.962 329.784 499.532L330.519 513.832L318.551 505.971C318.549 505.97 318.547 505.968 318.543 505.965C318.534 505.96 318.52 505.951 318.5 505.938C318.46 505.912 318.397 505.87 318.312 505.816C318.144 505.707 317.889 505.542 317.557 505.331C316.892 504.908 315.92 504.297 314.713 503.56C312.292 502.081 308.954 500.11 305.268 498.129C301.563 496.139 297.61 494.195 293.942 492.729C290.128 491.205 287.215 490.442 285.406 490.349L277.024 489.918L278.659 481.687L286.845 440.488L289.108 429.091L298.354 436.123ZM294.3 477.453C296.014 477.982 297.709 478.602 299.33 479.249C303.691 480.992 308.17 483.21 312.139 485.342C313.649 486.154 315.101 486.961 316.462 487.737C317.164 483.579 318.097 479.07 319.029 474.905C319.759 471.642 320.497 468.552 321.137 465.953C319.58 465.43 318.067 464.827 316.648 464.207C312.303 462.306 307.838 459.809 303.901 457.401C302.143 456.325 300.464 455.25 298.914 454.229L294.3 477.453ZM713.28 404.67C713.282 404.671 713.286 404.674 713.29 404.677C713.298 404.684 713.312 404.695 713.331 404.709C713.37 404.739 713.433 404.785 713.517 404.847C713.684 404.972 713.936 405.161 714.266 405.403C714.925 405.887 715.889 406.587 717.085 407.428C719.484 409.116 722.78 411.351 726.401 413.566C730.047 415.796 733.886 417.922 737.39 419.454C741.113 421.082 743.598 421.649 744.829 421.623L754.504 421.414L751.997 430.759L751.996 430.76C751.996 430.761 751.995 430.762 751.995 430.763C751.994 430.766 751.994 430.771 751.992 430.777C751.989 430.789 751.983 430.809 751.977 430.835C751.962 430.889 751.94 430.969 751.912 431.076C751.856 431.289 751.773 431.607 751.666 432.016C751.452 432.835 751.146 434.021 750.779 435.475C750.045 438.388 749.074 442.363 748.12 446.624C747.164 450.897 746.24 455.392 745.59 459.362C744.911 463.506 744.628 466.511 744.709 468.081L745.443 482.379L733.477 474.519C733.475 474.518 733.473 474.516 733.469 474.513C733.46 474.508 733.445 474.499 733.425 474.486C733.385 474.46 733.322 474.418 733.238 474.364C733.07 474.255 732.814 474.09 732.482 473.878C731.818 473.456 730.846 472.845 729.639 472.108C727.218 470.629 723.88 468.658 720.193 466.677C716.489 464.687 712.536 462.743 708.868 461.277C705.054 459.752 702.14 458.99 700.331 458.897L691.949 458.466L693.585 450.235L701.77 409.036L704.034 397.64L713.28 404.67ZM734.262 217.403C732.366 233.961 730.481 253.74 729.595 271.055C728.997 282.732 728.879 292.855 729.424 300.005C729.533 301.436 729.662 302.648 729.799 303.657C732.269 303.976 735.56 304.356 739.655 304.779C747.744 305.614 758.028 306.532 769.087 307.45C784.48 308.726 801.269 309.99 815.534 311.014C814.175 309.093 812.801 307.355 811.791 306.173C789.417 280.79 744.238 229.382 734.262 217.403Z" fill="#DA8F52"/>
</svg>
